<svg xmlns="http://www.w3.org/2000/svg" xmlns:xlink="http://www.w3.org/1999/xlink" preserveAspectRatio="xMidYMid" width="180" height="17.969" viewBox="0 0 180 17.969">
  <defs>
    <style>
      .cls-1 {
        fill: #303142;
        fill-rule: evenodd;
      }
    </style>
  </defs>
  <path d="M180.000,17.980 L170.000,17.980 L160.000,8.959 L170.000,0.013 L180.000,0.013 L170.000,8.951 L180.000,17.980 ZM164.000,17.980 L154.000,17.980 L144.000,8.959 L154.000,0.013 L164.000,0.013 L154.000,8.951 L164.000,17.980 ZM148.000,17.980 L138.000,17.980 L128.000,8.959 L138.000,0.013 L148.000,0.013 L138.000,8.951 L148.000,17.980 ZM132.000,17.980 L122.000,17.980 L112.000,8.959 L122.000,0.013 L132.000,0.013 L122.000,8.951 L132.000,17.980 ZM116.000,17.980 L106.000,17.980 L96.000,8.959 L106.000,0.013 L116.000,0.013 L106.000,8.951 L116.000,17.980 ZM100.000,17.980 L90.000,17.980 L80.000,8.959 L90.000,0.013 L100.000,0.013 L90.000,8.951 L100.000,17.980 ZM84.000,17.980 L74.000,17.980 L64.000,8.959 L74.000,0.013 L84.000,0.013 L74.000,8.951 L84.000,17.980 ZM68.000,17.980 L58.000,17.980 L48.000,8.959 L58.000,0.013 L68.000,0.013 L58.000,8.951 L68.000,17.980 ZM52.000,17.980 L42.000,17.980 L32.000,8.959 L42.000,0.013 L52.000,0.013 L42.000,8.951 L52.000,17.980 ZM36.000,17.980 L26.000,17.980 L16.000,8.959 L26.000,0.013 L36.000,0.013 L26.000,8.951 L36.000,17.980 ZM20.000,17.980 L10.000,17.980 L0.000,8.959 L10.000,0.013 L20.000,0.013 L10.000,8.951 L20.000,17.980 Z" class="cls-1"/>
</svg>
